<svg width="312" height="22" viewBox="0 0 312 22" fill="none" xmlns="http://www.w3.org/2000/svg">
<path d="M13.1335 14.793H14.8152C14.6784 16.1328 14.3093 17.2904 13.7077 18.2656C13.1062 19.2318 12.2859 19.9746 11.2468 20.4941C10.2077 21.0137 8.95448 21.2734 7.48703 21.2734C6.35682 21.2734 5.33143 21.0592 4.41086 20.6309C3.4994 20.2025 2.71555 19.5964 2.0593 18.8125C1.40305 18.0195 0.897186 17.0716 0.541718 15.9688C0.186249 14.8659 0.0085144 13.64 0.0085144 12.291V9.80273C0.0085144 8.45378 0.186249 7.23242 0.541718 6.13867C0.897186 5.03581 1.4076 4.08789 2.07297 3.29492C2.73833 2.50195 3.53586 1.89128 4.46555 1.46289C5.39523 1.03451 6.44341 0.820312 7.61008 0.820312C9.02284 0.820312 10.2442 1.08008 11.2741 1.59961C12.3041 2.11003 13.1153 2.84831 13.7077 3.81445C14.3093 4.7806 14.6784 5.94727 14.8152 7.31445H13.1335C13.0059 6.23893 12.7234 5.32747 12.2859 4.58008C11.8484 3.83268 11.2422 3.26302 10.4675 2.87109C9.70187 2.47005 8.7494 2.26953 7.61008 2.26953C6.68039 2.26953 5.85096 2.44727 5.1218 2.80273C4.39263 3.1582 3.77284 3.66862 3.26242 4.33398C2.752 4.99023 2.36008 5.77865 2.08664 6.69922C1.82232 7.61979 1.69016 8.64518 1.69016 9.77539V12.291C1.69016 13.3848 1.81776 14.3919 2.07297 15.3125C2.32818 16.2331 2.70187 17.0306 3.19406 17.7051C3.69536 18.3796 4.30604 18.9036 5.02609 19.2773C5.74614 19.651 6.56646 19.8379 7.48703 19.8379C8.66281 19.8379 9.64263 19.651 10.4265 19.2773C11.2195 18.8945 11.8347 18.3294 12.2722 17.582C12.7097 16.8346 12.9968 15.9049 13.1335 14.793ZM31.8815 10.0215V11.457H19.7819V10.0215H31.8815ZM20.1784 1.09375V21H18.4967V1.09375H20.1784ZM33.235 1.09375V21H31.5534V1.09375H33.235ZM37.8599 1.09375H44.3267C45.703 1.09375 46.897 1.31706 47.9087 1.76367C48.9205 2.21029 49.6998 2.87109 50.2466 3.74609C50.8026 4.61198 51.0806 5.67839 51.0806 6.94531C51.0806 7.88411 50.8801 8.73633 50.4791 9.50195C50.0871 10.2676 49.5448 10.9102 48.8521 11.4297C48.1594 11.9401 47.3573 12.291 46.4459 12.4824L45.858 12.7012H38.9537L38.9263 11.2656H44.7095C45.7486 11.2656 46.6145 11.0651 47.3072 10.6641C47.9999 10.263 48.5194 9.73438 48.8658 9.07812C49.2212 8.41276 49.399 7.70182 49.399 6.94531C49.399 6.04297 49.203 5.26367 48.8111 4.60742C48.4283 3.94206 47.8586 3.43164 47.1021 3.07617C46.3456 2.7207 45.4205 2.54297 44.3267 2.54297H39.5416V21H37.8599V1.09375ZM50.1509 21L44.9966 12.0996L46.8013 12.0859L51.942 20.8223V21H50.1509ZM54.4204 1.09375L60.4497 11.9355L66.5337 1.09375H68.4751L61.2973 13.4941V21H59.6157V13.4941L52.4243 1.09375H54.4204ZM82.0141 16.1055C82.0141 15.5586 81.9229 15.071 81.7406 14.6426C81.5583 14.2142 81.2576 13.8314 80.8383 13.4941C80.4281 13.1478 79.8721 12.8288 79.1703 12.5371C78.4776 12.2363 77.6117 11.9401 76.5727 11.6484C75.5792 11.3659 74.6814 11.056 73.8793 10.7188C73.0772 10.3815 72.3891 9.99414 71.8148 9.55664C71.2497 9.11914 70.8168 8.60872 70.516 8.02539C70.2152 7.43294 70.0648 6.74479 70.0648 5.96094C70.0648 5.19531 70.2289 4.49805 70.557 3.86914C70.8852 3.24023 71.3454 2.69792 71.9379 2.24219C72.5395 1.78646 73.2458 1.43555 74.057 1.18945C74.8773 0.943359 75.7751 0.820312 76.7504 0.820312C78.1449 0.820312 79.348 1.08464 80.3598 1.61328C81.3806 2.14193 82.169 2.85742 82.725 3.75977C83.2901 4.65299 83.5727 5.6556 83.5727 6.76758H81.891C81.891 5.90169 81.6859 5.13151 81.2758 4.45703C80.8747 3.77344 80.2914 3.24023 79.5258 2.85742C78.7693 2.46549 77.8441 2.26953 76.7504 2.26953C75.6566 2.26953 74.7361 2.43815 73.9887 2.77539C73.2504 3.10352 72.6898 3.54557 72.307 4.10156C71.9333 4.64844 71.7465 5.25911 71.7465 5.93359C71.7465 6.40755 71.8376 6.84505 72.0199 7.24609C72.2022 7.63802 72.4984 8.00716 72.9086 8.35352C73.3279 8.69076 73.8793 9.00977 74.5629 9.31055C75.2465 9.60221 76.0896 9.88021 77.0922 10.1445C78.1495 10.4362 79.0883 10.7598 79.9086 11.1152C80.7289 11.4707 81.4216 11.8809 81.9867 12.3457C82.5518 12.8014 82.9802 13.3346 83.2719 13.9453C83.5635 14.556 83.7094 15.2669 83.7094 16.0781C83.7094 16.8893 83.5362 17.6185 83.1898 18.2656C82.8526 18.9036 82.3741 19.446 81.7543 19.8926C81.1436 20.3392 80.419 20.681 79.5805 20.918C78.751 21.1549 77.8441 21.2734 76.8598 21.2734C75.9756 21.2734 75.0961 21.1595 74.2211 20.9316C73.3461 20.7038 72.544 20.3529 71.8148 19.8789C71.0948 19.3958 70.516 18.776 70.0785 18.0195C69.6501 17.263 69.4359 16.3607 69.4359 15.3125H71.1039C71.1039 16.151 71.2725 16.8574 71.6098 17.4316C71.947 18.0059 72.3936 18.4707 72.9496 18.8262C73.5147 19.1816 74.1345 19.4414 74.809 19.6055C75.4926 19.7604 76.1762 19.8379 76.8598 19.8379C77.9079 19.8379 78.8148 19.6829 79.5805 19.373C80.3552 19.0632 80.9522 18.6302 81.3715 18.0742C81.7999 17.5091 82.0141 16.8529 82.0141 16.1055ZM93.4613 2.2832L86.5706 21H84.8206L92.3402 1.09375H93.557L93.4613 2.2832ZM99.723 21L92.8187 2.2832L92.723 1.09375H93.9398L101.473 21H99.723ZM98.4925 13.9727V15.4219H87.9241V13.9727H98.4925ZM118.826 1.09375V21H117.131L105.688 3.99219V21H104.006V1.09375H105.688L117.158 18.1016V1.09375H118.826ZM129.754 1.09375V21H128.086V1.09375H129.754ZM136.576 1.09375V2.54297H121.277V1.09375H136.576ZM152.781 10.0215V11.457H140.682V10.0215H152.781ZM141.078 1.09375V21H139.397V1.09375H141.078ZM154.135 1.09375V21H152.453V1.09375H154.135ZM160.852 1.09375V21H159.17V1.09375H160.852ZM172.781 1.09375H174.476L181.832 18.6211L189.201 1.09375H190.883L182.474 21H181.189L172.781 1.09375ZM172.262 1.09375H173.752L173.93 12.3047V21H172.262V1.09375ZM189.939 1.09375H191.43V21H189.748V12.3047L189.939 1.09375ZM202.849 2.2832L195.959 21H194.209L201.728 1.09375H202.945L202.849 2.2832ZM209.111 21L202.207 2.2832L202.111 1.09375H203.328L210.861 21H209.111ZM207.881 13.9727V15.4219H197.312V13.9727H207.881ZM218.289 1.09375V21H216.621V1.09375H218.289ZM225.111 1.09375V2.54297H209.812V1.09375H225.111ZM238.978 16.1055C238.978 15.5586 238.887 15.071 238.705 14.6426C238.522 14.2142 238.222 13.8314 237.802 13.4941C237.392 13.1478 236.836 12.8288 236.134 12.5371C235.442 12.2363 234.576 11.9401 233.537 11.6484C232.543 11.3659 231.645 11.056 230.843 10.7188C230.041 10.3815 229.353 9.99414 228.779 9.55664C228.214 9.11914 227.781 8.60872 227.48 8.02539C227.179 7.43294 227.029 6.74479 227.029 5.96094C227.029 5.19531 227.193 4.49805 227.521 3.86914C227.849 3.24023 228.309 2.69792 228.902 2.24219C229.504 1.78646 230.21 1.43555 231.021 1.18945C231.841 0.943359 232.739 0.820312 233.714 0.820312C235.109 0.820312 236.312 1.08464 237.324 1.61328C238.345 2.14193 239.133 2.85742 239.689 3.75977C240.254 4.65299 240.537 5.6556 240.537 6.76758H238.855C238.855 5.90169 238.65 5.13151 238.24 4.45703C237.839 3.77344 237.255 3.24023 236.49 2.85742C235.733 2.46549 234.808 2.26953 233.714 2.26953C232.621 2.26953 231.7 2.43815 230.953 2.77539C230.214 3.10352 229.654 3.54557 229.271 4.10156C228.897 4.64844 228.711 5.25911 228.711 5.93359C228.711 6.40755 228.802 6.84505 228.984 7.24609C229.166 7.63802 229.462 8.00716 229.873 8.35352C230.292 8.69076 230.843 9.00977 231.527 9.31055C232.211 9.60221 233.054 9.88021 234.056 10.1445C235.114 10.4362 236.052 10.7598 236.873 11.1152C237.693 11.4707 238.386 11.8809 238.951 12.3457C239.516 12.8014 239.944 13.3346 240.236 13.9453C240.528 14.556 240.673 15.2669 240.673 16.0781C240.673 16.8893 240.5 17.6185 240.154 18.2656C239.817 18.9036 239.338 19.446 238.718 19.8926C238.108 20.3392 237.383 20.681 236.545 20.918C235.715 21.1549 234.808 21.2734 233.824 21.2734C232.94 21.2734 232.06 21.1595 231.185 20.9316C230.31 20.7038 229.508 20.3529 228.779 19.8789C228.059 19.3958 227.48 18.776 227.043 18.0195C226.614 17.263 226.4 16.3607 226.4 15.3125H228.068C228.068 16.151 228.237 16.8574 228.574 17.4316C228.911 18.0059 229.358 18.4707 229.914 18.8262C230.479 19.1816 231.099 19.4414 231.773 19.6055C232.457 19.7604 233.14 19.8379 233.824 19.8379C234.872 19.8379 235.779 19.6829 236.545 19.373C237.319 19.0632 237.916 18.6302 238.336 18.0742C238.764 17.5091 238.978 16.8529 238.978 16.1055ZM250.425 2.2832L243.535 21H241.785L249.304 1.09375H250.521L250.425 2.2832ZM256.687 21L249.783 2.2832L249.687 1.09375H250.904L258.437 21H256.687ZM255.457 13.9727V15.4219H244.888V13.9727H255.457ZM275.162 11.5391V18.6211C274.934 18.9583 274.542 19.332 273.986 19.7422C273.43 20.1523 272.682 20.5124 271.744 20.8223C270.805 21.123 269.638 21.2734 268.244 21.2734C267.077 21.2734 266.006 21.0638 265.031 20.6445C264.055 20.2253 263.208 19.6191 262.488 18.8262C261.777 18.0241 261.225 17.0625 260.833 15.9414C260.451 14.8203 260.259 13.5625 260.259 12.168V9.76172C260.259 8.39453 260.437 7.16406 260.792 6.07031C261.148 4.96745 261.663 4.02409 262.337 3.24023C263.012 2.45638 263.823 1.85938 264.771 1.44922C265.728 1.02995 266.799 0.820312 267.984 0.820312C269.46 0.820312 270.705 1.07552 271.716 1.58594C272.728 2.09635 273.516 2.79818 274.081 3.69141C274.656 4.57552 275.011 5.57812 275.148 6.69922H273.466C273.339 5.90625 273.074 5.17708 272.673 4.51172C272.272 3.83724 271.689 3.29492 270.923 2.88477C270.167 2.47461 269.187 2.26953 267.984 2.26953C267.018 2.26953 266.156 2.44727 265.4 2.80273C264.652 3.1582 264.024 3.66406 263.513 4.32031C263.003 4.97656 262.615 5.76497 262.351 6.68555C262.087 7.59701 261.955 8.61328 261.955 9.73438V12.168C261.955 13.3346 262.1 14.3874 262.392 15.3262C262.693 16.265 263.121 17.0716 263.677 17.7461C264.233 18.4206 264.899 18.9401 265.673 19.3047C266.448 19.6602 267.309 19.8379 268.257 19.8379C269.269 19.8379 270.13 19.7422 270.841 19.5508C271.552 19.3594 272.122 19.1315 272.55 18.8672C272.988 18.5938 273.302 18.3385 273.494 18.1016V12.9746H268.148V11.5391H275.162ZM281.236 1.09375V21H279.554V1.09375H281.236ZM293.54 1.09375L284.954 10.2129L280.634 14.4648L280.47 12.5918L283.943 8.98242L291.435 1.09375H293.54ZM292.146 21L283.765 10.7734L284.777 9.41992L294.183 21H292.146ZM303.361 2.2832L296.47 21H294.72L302.24 1.09375H303.456L303.361 2.2832ZM309.622 21L302.718 2.2832L302.622 1.09375H303.839L311.372 21H309.622ZM308.392 13.9727V15.4219H297.824V13.9727H308.392Z" fill="black"/>
</svg>
